<svg width="1280" height="720" viewBox="0 0 1280 720" fill="none" xmlns="http://www.w3.org/2000/svg">
  <rect width="1280" height="720" rx="34" fill="#0A0D16"/>
  <rect x="1" y="1" width="1278" height="718" rx="33" stroke="white" stroke-opacity=".08"/>

  <rect x="42" y="44" width="1196" height="632" rx="24" fill="#11131D"/>
  <rect x="42.5" y="44.5" width="1195" height="631" rx="23.5" stroke="white" stroke-opacity=".09"/>

  <rect x="42" y="44" width="1196" height="66" rx="24" fill="#24262E"/>
  <path d="M42 86H1238" stroke="white" stroke-opacity=".07"/>

  <circle cx="84" cy="77" r="18" fill="#E8ECF8" fill-opacity=".08"/>
  <path d="M78 81c0-8 4-13 11-13 5 0 9 3 9 8 0 4-2 6-5 7v5h-7v-8h2c2 0 3-1 3-3 0-2-1-3-3-3-3 0-4 2-4 6l-6 1Z" fill="#E9EDF8"/>
  <text x="116" y="84" fill="#F3F6FF" font-family="-apple-system,BlinkMacSystemFont,Segoe UI,sans-serif" font-size="25" font-weight="700">BrainBar</text>
  <circle cx="238" cy="77" r="4" fill="#87D8CE"/>
  <text x="254" y="83" fill="#B7BDCB" font-family="-apple-system,BlinkMacSystemFont,Segoe UI,sans-serif" font-size="16" font-weight="650">main clean</text>

  <circle cx="1118" cy="77" r="16" stroke="#DCE3F7" stroke-opacity=".34" stroke-width="2"/>
  <circle cx="1165" cy="77" r="19" fill="#E8ECF8" fill-opacity=".07" stroke="white" stroke-opacity=".08"/>
  <path d="M1157 77h16M1165 69v16" stroke="#E9EDF8" stroke-opacity=".82" stroke-width="2" stroke-linecap="round"/>
  <circle cx="1211" cy="77" r="19" fill="#E8ECF8" fill-opacity=".07" stroke="white" stroke-opacity=".08"/>
  <path d="M1211 66v8l6-4M1220 80a10 10 0 1 1-3-9" stroke="#E9EDF8" stroke-opacity=".82" stroke-width="2" stroke-linecap="round" stroke-linejoin="round"/>

  <rect x="58" y="122" width="813" height="492" rx="18" fill="#080B14"/>
  <rect x="58.5" y="122.5" width="812" height="491" rx="17.5" stroke="white" stroke-opacity=".06"/>
  <circle cx="446" cy="360" r="180" fill="#455DFF" fill-opacity=".06"/>
  <circle cx="548" cy="440" r="170" fill="#61D4C8" fill-opacity=".04"/>

  <g stroke-opacity=".24" stroke-width="1">
    <path d="M435 374 380 315 324 338 294 414 360 460 455 451 520 395 566 312 516 252 435 374" stroke="#95A3BE"/>
    <path d="M435 374 508 520 652 486 701 392 640 306 566 312" stroke="#95A3BE"/>
    <path d="M435 374 278 252 174 288 126 410 217 515 360 460" stroke="#95A3BE"/>
    <path d="M516 252 610 162 740 188 793 292 701 392" stroke="#95A3BE"/>
    <path d="M360 460 280 584 164 568 126 506" stroke="#95A3BE"/>
    <path d="M508 520 560 594 696 573 764 509" stroke="#95A3BE"/>
  </g>

  <g>
    <circle cx="435" cy="374" r="13" fill="#87D8CE"/>
    <circle cx="516" cy="252" r="10" fill="#F39A2B"/>
    <circle cx="360" cy="460" r="11" fill="#5EA75C"/>
    <circle cx="566" cy="312" r="9" fill="#547FB4"/>
    <circle cx="701" cy="392" r="8" fill="#F46363"/>
    <circle cx="508" cy="520" r="10" fill="#C586B6"/>
    <circle cx="294" cy="414" r="8" fill="#F7D84B"/>
    <circle cx="380" cy="315" r="7" fill="#B18A6E"/>
    <circle cx="652" cy="486" r="7" fill="#75C8C2"/>
    <circle cx="610" cy="162" r="6" fill="#F46363"/>
    <circle cx="740" cy="188" r="6" fill="#F7D84B"/>
    <circle cx="793" cy="292" r="5" fill="#C586B6"/>
    <circle cx="278" cy="252" r="6" fill="#547FB4"/>
    <circle cx="174" cy="288" r="5" fill="#C586B6"/>
    <circle cx="126" cy="410" r="5" fill="#75C8C2"/>
    <circle cx="217" cy="515" r="6" fill="#F39A2B"/>
    <circle cx="280" cy="584" r="5" fill="#F7D84B"/>
    <circle cx="164" cy="568" r="5" fill="#75C8C2"/>
    <circle cx="764" cy="509" r="5" fill="#F46363"/>
    <circle cx="696" cy="573" r="5" fill="#5EA75C"/>
  </g>

  <g opacity=".86">
    <path d="M435 374 452 286M435 374l-64-114M435 374l-143 8M435 374l-91 92M435 374l23 119M435 374l100-39M435 374l154 37M435 374l215-110" stroke="#95A3BE" stroke-opacity=".16"/>
    <circle cx="452" cy="286" r="4" fill="#87D8CE"/>
    <circle cx="371" cy="260" r="4" fill="#F39A2B"/>
    <circle cx="292" cy="382" r="4" fill="#F46363"/>
    <circle cx="344" cy="466" r="4" fill="#5EA75C"/>
    <circle cx="458" cy="493" r="4" fill="#F7D84B"/>
    <circle cx="535" cy="335" r="4" fill="#547FB4"/>
    <circle cx="589" cy="411" r="4" fill="#C586B6"/>
    <circle cx="650" cy="264" r="4" fill="#B18A6E"/>
  </g>

  <rect x="890" y="122" width="331" height="492" rx="18" fill="#171929"/>
  <rect x="890.5" y="122.5" width="330" height="491" rx="17.5" stroke="white" stroke-opacity=".07"/>
  <rect x="913" y="146" width="285" height="58" rx="14" fill="#090C15" stroke="#7889DC" stroke-opacity=".35"/>
  <text x="937" y="181" fill="#D4D8E5" font-family="-apple-system,BlinkMacSystemFont,Segoe UI,sans-serif" font-size="22" font-weight="650">Search nodes...</text>

  <text x="913" y="250" fill="#B6BCCB" font-family="-apple-system,BlinkMacSystemFont,Segoe UI,sans-serif" font-size="18" font-weight="760" letter-spacing="4">NODE INFO</text>
  <text x="913" y="292" fill="#EEF2FF" font-family="-apple-system,BlinkMacSystemFont,Segoe UI,sans-serif" font-size="20" font-weight="720">Local Knowledge Graph</text>
  <text x="913" y="326" fill="#C7CBD8" font-family="-apple-system,BlinkMacSystemFont,Segoe UI,sans-serif" font-size="16" font-weight="560">Type: document</text>
  <text x="913" y="354" fill="#C7CBD8" font-family="-apple-system,BlinkMacSystemFont,Segoe UI,sans-serif" font-size="16" font-weight="560">Community: Memory System</text>
  <text x="913" y="382" fill="#C7CBD8" font-family="-apple-system,BlinkMacSystemFont,Segoe UI,sans-serif" font-size="16" font-weight="560">Degree: 27</text>

  <path d="M890 420H1221" stroke="white" stroke-opacity=".07"/>
  <text x="913" y="466" fill="#B6BCCB" font-family="-apple-system,BlinkMacSystemFont,Segoe UI,sans-serif" font-size="18" font-weight="760" letter-spacing="4">COMMUNITIES</text>

  <g font-family="-apple-system,BlinkMacSystemFont,Segoe UI,sans-serif" font-size="17" font-weight="650" fill="#D9DEEC">
    <rect x="914" y="498" width="18" height="18" rx="5" fill="#7E9AFF"/>
    <circle cx="955" cy="507" r="9" fill="#547FB4"/>
    <text x="974" y="513">Community 0</text>
    <text x="1168" y="513" fill="#7F8491">42</text>
    <rect x="914" y="542" width="18" height="18" rx="5" fill="#7E9AFF"/>
    <circle cx="955" cy="551" r="9" fill="#F39A2B"/>
    <text x="974" y="557">Community 1</text>
    <text x="1168" y="557" fill="#7F8491">33</text>
    <rect x="914" y="586" width="18" height="18" rx="5" fill="#7E9AFF"/>
    <circle cx="955" cy="595" r="9" fill="#F46363"/>
    <text x="974" y="601">Community 2</text>
    <text x="1168" y="601" fill="#7F8491">25</text>
  </g>

  <rect x="42" y="625" width="1196" height="51" rx="0" fill="#24262E"/>
  <path d="M42 625H1238" stroke="white" stroke-opacity=".07"/>
  <text x="68" y="657" fill="#B9C0D0" font-family="-apple-system,BlinkMacSystemFont,Segoe UI,sans-serif" font-size="16" font-weight="650">Brain</text>
  <text x="160" y="657" fill="#B9C0D0" font-family="-apple-system,BlinkMacSystemFont,Segoe UI,sans-serif" font-size="16" font-weight="650">Graph updated just now</text>
  <text x="388" y="657" fill="#B9C0D0" font-family="-apple-system,BlinkMacSystemFont,Segoe UI,sans-serif" font-size="16" font-weight="650">Brain Check not configured</text>
</svg>
